<svg width="64" height="64" viewBox="0 0 64 64" fill="none" xmlns="http://www.w3.org/2000/svg">
  <circle cx="32" cy="32" r="30" fill="url(#gradient)" stroke="url(#strokeGradient)" stroke-width="2"/>
  <rect x="18" y="24" width="28" height="16" rx="3" fill="url(#cameraGradient)" stroke="url(#cameraStroke)" stroke-width="1.5"/>
  <circle cx="32" cy="32" r="6" fill="url(#lensGradient)" stroke="url(#lensStroke)" stroke-width="1"/>
  <circle cx="32" cy="32" r="4" fill="url(#lensInnerGradient)"/>
  <rect x="24" y="20" width="4" height="2" rx="1" fill="url(#flashGradient)"/>
  <path d="M44 28 L48 32 L44 36" stroke="url(#toolGradient)" stroke-width="2" stroke-linecap="round" stroke-linejoin="round"/>
  <path d="M20 28 L16 32 L20 36" stroke="url(#toolGradient)" stroke-width="2" stroke-linecap="round" stroke-linejoin="round"/>
  <circle cx="26" cy="26" r="1" fill="url(#pixelGradient)" opacity="0.8"/>
  <circle cx="38" cy="26" r="1" fill="url(#pixelGradient)" opacity="0.8"/>
  <circle cx="26" cy="38" r="1" fill="url(#pixelGradient)" opacity="0.8"/>
  <circle cx="38" cy="38" r="1" fill="url(#pixelGradient)" opacity="0.8"/>
  <defs>
    <linearGradient id="gradient" x1="0%" y1="0%" x2="100%" y2="100%">
      <stop offset="0%" stop-color="#1a1a2e"/>
      <stop offset="50%" stop-color="#16213e"/>
      <stop offset="100%" stop-color="#0f3460"/>
    </linearGradient>
    <linearGradient id="strokeGradient" x1="0%" y1="0%" x2="100%" y2="100%">
      <stop offset="0%" stop-color="#ff6b6b"/>
      <stop offset="50%" stop-color="#4ecdc4"/>
      <stop offset="100%" stop-color="#45b7d1"/>
    </linearGradient>
    <linearGradient id="cameraGradient" x1="0%" y1="0%" x2="100%" y2="100%">
      <stop offset="0%" stop-color="#2c3e50"/>
      <stop offset="100%" stop-color="#34495e"/>
    </linearGradient>
    <linearGradient id="cameraStroke" x1="0%" y1="0%" x2="100%" y2="100%">
      <stop offset="0%" stop-color="#ecf0f1"/>
      <stop offset="100%" stop-color="#bdc3c7"/>
    </linearGradient>
    <radialGradient id="lensGradient" cx="50%" cy="50%" r="50%">
      <stop offset="0%" stop-color="#3498db"/>
      <stop offset="100%" stop-color="#2980b9"/>
    </radialGradient>
    <linearGradient id="lensStroke" x1="0%" y1="0%" x2="100%" y2="100%">
      <stop offset="0%" stop-color="#5dade2"/>
      <stop offset="100%" stop-color="#3498db"/>
    </linearGradient>
    <radialGradient id="lensInnerGradient" cx="50%" cy="50%" r="50%">
      <stop offset="0%" stop-color="#85c1e9"/>
      <stop offset="100%" stop-color="#5dade2"/>
    </radialGradient>
    <linearGradient id="flashGradient" x1="0%" y1="0%" x2="100%" y2="100%">
      <stop offset="0%" stop-color="#f39c12"/>
      <stop offset="100%" stop-color="#e67e22"/>
    </linearGradient>
    <linearGradient id="toolGradient" x1="0%" y1="0%" x2="100%" y2="100%">
      <stop offset="0%" stop-color="#e74c3c"/>
      <stop offset="100%" stop-color="#c0392b"/>
    </linearGradient>
    <radialGradient id="pixelGradient" cx="50%" cy="50%" r="50%">
      <stop offset="0%" stop-color="#2ecc71"/>
      <stop offset="100%" stop-color="#27ae60"/>
    </radialGradient>
  </defs>
</svg> 